<?xml version="1.0" standalone="no"?>
<!DOCTYPE svg PUBLIC "-//W3C//DTD SVG 20010904//EN"
 "http://www.w3.org/TR/2001/REC-SVG-20010904/DTD/svg10.dtd">
<svg version="1.0" xmlns="http://www.w3.org/2000/svg"
 width="1280.000000pt" height="1280.000000pt" viewBox="0 0 1280.000000 1280.000000"
 preserveAspectRatio="xMidYMid meet">
<g transform="translate(0.000000,1280.000000) scale(0.100000,-0.100000)"
fill="#000000" stroke="none">
<path d="M2455 12790 c-27 -4 -95 -13 -150 -19 -337 -40 -683 -155 -978 -323
-717 -410 -1202 -1138 -1297 -1948 -6 -52 -15 -125 -20 -162 -15 -99 -13
-7776 1 -7887 45 -347 74 -490 144 -690 263 -755 860 -1349 1617 -1610 202
-69 375 -104 693 -141 145 -17 7832 -9 7960 8 170 23 320 52 446 86 605 166
1129 543 1476 1063 133 199 222 376 298 594 70 200 99 343 144 690 16 121 16
7777 0 7898 -43 336 -73 483 -137 672 -206 603 -624 1110 -1179 1427 -294 168
-643 283 -973 322 -52 6 -125 15 -162 20 -80 12 -7807 12 -7883 0z m8054
-1008 c665 -157 1131 -626 1274 -1284 l22 -103 0 -3995 0 -3995 -22 -103
c-144 -661 -624 -1141 -1285 -1285 l-103 -22 -3995 0 -3995 0 -103 22 c-661
144 -1141 624 -1285 1285 l-22 103 0 3995 0 3995 24 109 c124 577 531 1039
1076 1222 96 32 254 68 335 77 19 2 1824 3 4010 3 l3975 -2 94 -22z"/>
<path d="M9929 10730 c-156 -25 -282 -90 -401 -210 -72 -73 -94 -103 -132
-181 -59 -122 -81 -229 -73 -359 10 -184 77 -330 212 -465 221 -222 553 -271
838 -123 99 52 223 170 280 268 120 208 128 459 20 680 -39 81 -59 108 -137
185 -73 73 -107 99 -176 132 -47 23 -112 49 -146 57 -77 20 -213 27 -285 16z"/>
<path d="M6025 10065 c-1270 -132 -2378 -906 -2935 -2050 -200 -411 -319 -838
-361 -1297 -15 -169 -6 -634 15 -788 139 -987 628 -1841 1395 -2438 548 -426
1189 -682 1896 -757 274 -29 671 -17 962 30 698 112 1378 444 1898 928 462
429 787 927 989 1515 135 394 196 764 196 1192 0 747 -208 1434 -621 2050
-612 914 -1597 1505 -2690 1615 -182 18 -570 18 -744 0z m717 -980 c313 -41
565 -118 853 -260 291 -143 524 -313 750 -546 206 -213 352 -421 485 -694 453
-925 343 -2008 -287 -2838 -100 -131 -359 -390 -490 -490 -379 -288 -805 -466
-1283 -538 -189 -28 -522 -31 -710 -5 -612 83 -1173 363 -1590 792 -144 148
-221 242 -326 400 -230 345 -382 759 -435 1189 -16 129 -16 481 0 610 78 631
356 1196 802 1631 203 197 412 348 649 469 351 178 683 269 1095 299 89 7 377
-5 487 -19z"/>
</g>
</svg>
